HIERARCHY
ROOT RootJoint
{
    OFFSET   0.000000   0.000000   0.000000
    CHANNELS 6 Xposition Yposition Zposition Xrotation Yrotation Zrotation
    JOINT pelvis_lowerback
    {
        OFFSET   0.000000   0.093605   0.000000
        CHANNELS 3 Xrotation Yrotation Zrotation
        JOINT lowerback_torso
        {
            OFFSET   0.000000   0.100000   0.000000
            CHANNELS 3 Xrotation Yrotation Zrotation
            JOINT torso_head
            {
                OFFSET   0.000000   0.282350   0.000000
                CHANNELS 3 Xrotation Yrotation Zrotation
                End Site
                {
                    OFFSET   0.000000   0.192650   0.000000
                }
            }
            JOINT rTorso_Clavicle
            {
                OFFSET  -0.001000   0.157500   0.000000
                CHANNELS 3 Xrotation Yrotation Zrotation
                JOINT rShoulder
                {
                    OFFSET  -0.117647   0.000000   0.000000
                    CHANNELS 3 Xrotation Yrotation Zrotation
                    JOINT rElbow
                    {
                        OFFSET  -0.245000   0.000000   0.000000
                        CHANNELS 3 Xrotation Yrotation Zrotation
                        JOINT rWrist
                        {
                            OFFSET  -0.240000   0.000000   0.000000
                            CHANNELS 3 Xrotation Yrotation Zrotation
                            End Site
                            {
                                OFFSET  -0.116353  -0.002500   0.000000
                            }
                        }
                    }
                }
            }
            JOINT lTorso_Clavicle
            {
                OFFSET   0.001000   0.157500   0.000000
                CHANNELS 3 Xrotation Yrotation Zrotation
                JOINT lShoulder
                {
                    OFFSET   0.117647   0.000000   0.000000
                    CHANNELS 3 Xrotation Yrotation Zrotation
                    JOINT lElbow
                    {
                        OFFSET   0.245000   0.000000   0.000000
                        CHANNELS 3 Xrotation Yrotation Zrotation
                        JOINT lWrist
                        {
                            OFFSET   0.240000   0.000000   0.000000
                            CHANNELS 3 Xrotation Yrotation Zrotation
                            End Site
                            {
                                OFFSET   0.116353  -0.002500   0.000000
                            }
                        }
                    }
                }
            }
        }
    }
    JOINT rHip
    {
        OFFSET  -0.100000  -0.051395   0.000000
        CHANNELS 3 Xrotation Yrotation Zrotation
        JOINT rKnee
        {
            OFFSET   0.000000  -0.410000   0.000000
            CHANNELS 3 Xrotation Yrotation Zrotation
            JOINT rAnkle
            {
                OFFSET   0.000000  -0.390000   0.000000
                CHANNELS 3 Xrotation Yrotation Zrotation
                JOINT rToeJoint
                {
                    OFFSET   0.000000  -0.050000   0.130000
                    CHANNELS 3 Xrotation Yrotation Zrotation
                    End Site
                    {
                        OFFSET  -0.010000   0.002000   0.060000
                    }
                }
            }
        }
    }
    JOINT lHip
    {
        OFFSET   0.100000  -0.051395   0.000000
        CHANNELS 3 Xrotation Yrotation Zrotation
        JOINT lKnee
        {
            OFFSET   0.000000  -0.410000   0.000000
            CHANNELS 3 Xrotation Yrotation Zrotation
            JOINT lAnkle
            {
                OFFSET   0.000000  -0.390000   0.000000
                CHANNELS 3 Xrotation Yrotation Zrotation
                JOINT lToeJoint
                {
                    OFFSET   0.000000  -0.050000   0.130000
                    CHANNELS 3 Xrotation Yrotation Zrotation
                    End Site
                    {
                        OFFSET   0.010000   0.002000   0.060000
                    }
                }
            }
        }
    }
}
MOTION
Frames: 10
Frame Time:   0.008333
 -2.301286   0.790942   4.490372   9.818380  12.198969   0.514847  41.277834   3.884941  -1.989704   0.344449  -0.969242   0.013080  -7.604785   1.612457  -3.590730  -8.019797  32.965949  -4.795189 -26.421836  20.986344  27.923268  -0.001544  46.868094   0.001470  -1.175384   1.259391  -7.220010 -11.629854 -25.354672   5.649581 -20.423353 -13.096359 -19.936916  -0.002101 -57.386073  -0.001472  -1.303935  -3.256127  10.844209 -44.532503  -1.946190  -8.079464  68.090923  -0.001521   0.000769 -32.575559  -7.667820  -4.915787  -0.960704  -0.002320  -0.000273 -56.423185  -1.798317   3.516895  39.944280  -0.001401   0.014098  -7.892069  -4.649226  -1.369308  -0.234539   0.000629  -0.003210
 -2.296735   0.790915   4.494039  10.020838  11.832887   0.319580  41.283070   3.959374  -1.943628   0.369534  -0.944369   0.018609  -7.775776   1.558449  -3.543871  -8.055023  33.144552  -4.696305 -26.367710  21.068418  27.693123  -0.001264  46.604796   0.001051  -1.230556   1.294991  -7.299580 -11.739920 -25.460571   5.496421 -20.462593 -13.095909 -19.860265  -0.002010 -57.291797  -0.001410  -1.253439  -3.233893  10.960070 -44.491620  -1.625488  -7.971414  68.180704  -0.000996   0.000481 -32.400507  -7.684380  -4.630440  -1.602716  -0.002432  -0.000384 -56.061391  -1.900252   3.575236  39.588017  -0.001627   0.012473  -7.510077  -4.588655  -1.250110  -0.210458   0.000528  -0.002629
 -2.292093   0.790588   4.497764  10.210087  11.474280   0.092122  41.283077   4.027660  -1.873795   0.383187  -0.920485   0.039426  -7.942613   1.505196  -3.495990  -8.097286  33.323422  -4.599912 -26.324199  21.148800  27.475871  -0.000911  46.355404   0.000627  -1.288443   1.304623  -7.404707 -11.847774 -25.569368   5.345812 -20.504477 -13.099281 -19.790774  -0.001905 -57.202446  -0.001331  -1.206467  -3.200674  11.106277 -44.470089  -1.334546  -7.853978  68.338979  -0.000409   0.000133 -32.232642  -7.687155  -4.356040  -2.297251  -0.002688  -0.000529 -55.690268  -1.990443   3.660085  39.241955  -0.001844   0.011009  -7.152682  -4.528661  -1.138223  -0.178608   0.000460  -0.002173
 -2.288069   0.791425   4.500902  10.405637  11.426195   0.019318  41.481835   3.953512  -1.846826   0.403133  -1.000011   0.088140  -8.120370   1.450986  -3.445702  -8.181567  33.482658  -4.519560 -26.302824  21.213837  27.230442  -0.001111  46.115579   0.000730  -1.349365   1.285186  -7.654248 -11.987082 -25.749623   5.239078 -20.578214 -13.149203 -19.698509  -0.001926 -57.121593  -0.001339  -1.156072  -3.193800  11.326787 -44.366696  -1.007264  -7.945769  68.297232  -0.000468   0.000111 -31.925637  -7.719087  -4.130407  -3.038390  -0.003216  -0.001770 -55.883357  -2.021901   3.456853  39.610166  -0.000823   0.008208  -6.451579  -4.463749  -1.066751  -0.077920   0.000560  -0.001809
 -2.284338   0.792620   4.504042  10.604434  11.376590  -0.049673  41.665393   3.909134  -1.837883   0.479136  -1.072148   0.111440  -8.264968   1.401498  -3.406226  -8.249344  33.634207  -4.440301 -26.278124  21.276978  27.012457  -0.001512  45.893346   0.000979  -1.406778   1.266207  -7.880055 -12.109029 -25.927041   5.130714 -20.643941 -13.205627 -19.626030  -0.001939 -57.053324  -0.001323  -1.100596  -3.221712  11.514879 -44.212160  -0.666611  -8.014600  68.182294  -0.000769   0.000071 -31.558207  -7.758699  -3.935948  -3.849340  -0.003885  -0.003074 -55.985273  -2.010956   3.285891  39.842993  -0.000264   0.006272  -5.935530  -4.396517  -1.002144  -0.030882   0.000530  -0.001464
 -2.280908   0.793949   4.507193  10.825994  11.360342  -0.137877  41.820600   3.871906  -1.825451   0.564978  -1.137141   0.130602  -8.394054   1.355402  -3.370540  -8.301019  33.777648  -4.362524 -26.249384  21.336873  26.820327  -0.001934  45.686804   0.001260  -1.461891   1.249320  -8.061023 -12.213717 -26.093039   5.022780 -20.699428 -13.259202 -19.569018  -0.001927 -56.991599  -0.001282  -1.045408  -3.260378  11.660323 -44.052826  -0.336705  -8.064633  68.021955  -0.001183  -0.000029 -31.174609  -7.771802  -3.755523  -4.665136  -0.004384  -0.004619 -56.059770  -1.996933   3.131286  39.983561   0.000014   0.004894  -5.482866  -4.333100  -0.941659   0.000668   0.000475  -0.001173
 -2.277775   0.795301   4.510362  11.062644  11.386123  -0.242782  41.955152   3.837496  -1.809902   0.649763  -1.197528   0.150140  -8.513466   1.312252  -3.336994  -8.341751  33.911649  -4.287130 -26.218459  21.392267  26.647834  -0.002310  45.494098   0.001534  -1.515194   1.232034  -8.209348 -12.305967 -26.247504   4.918277 -20.747414 -13.308799 -19.521640  -0.001886 -56.934293  -0.001216  -0.992400  -3.299019  11.775924 -43.893052  -0.023899  -8.102097  67.846194  -0.001584  -0.000183 -30.794216  -7.770665  -3.587604  -5.483392  -0.004706  -0.006255 -56.124637  -1.982926   2.986728  40.070370   0.000143   0.003877  -5.074355  -4.273739  -0.884785   0.026850   0.000418  -0.000930
 -2.274903   0.796585   4.513437  11.342654  11.368097  -0.421331  42.078479   3.871844  -1.780350   0.688996  -1.213961   0.159062  -8.659570   1.227884  -3.279383  -8.374716  34.079593  -4.178744 -26.205827  21.419394  26.404795  -0.002708  45.245385   0.001825  -1.571042   1.249460  -8.318865 -12.407685 -26.452026   4.783381 -20.830666 -13.335738 -19.446788  -0.002165 -56.802036  -0.001266  -0.936948  -3.354982  11.904182 -43.806000   0.309143  -8.043469  67.688008  -0.001868  -0.000336 -30.366975  -7.705831  -3.388436  -6.193058  -0.004536  -0.007839 -56.244854  -2.008978   2.932683  40.168646   0.000245   0.003062  -4.678104  -4.126995  -0.781235   0.096290   0.000392  -0.000670
 -2.272243   0.797806   4.516482  11.627922  11.359819  -0.611431  42.204670   3.910949  -1.755199   0.719611  -1.220639   0.169497  -8.801552   1.148284  -3.222719  -8.413641  34.246041  -4.077553 -26.199210  21.446966  26.173123  -0.002996  45.009674   0.002055  -1.627749   1.246720  -8.443658 -12.509463 -26.647434   4.658635 -20.913107 -13.360536 -19.371959  -0.002341 -56.673264  -0.001273  -0.890423  -3.378457  12.057554 -43.738618   0.618670  -7.974066  67.544791  -0.002018  -0.000451 -29.962277  -7.626253  -3.196512  -6.782584  -0.004166  -0.008675 -56.369585  -2.046192   2.893087  40.256942   0.000304   0.002425  -4.306823  -3.990092  -0.681905   0.162649   0.000361  -0.000464
 -2.269781   0.798963   4.519519  11.913717  11.370285  -0.802314  42.329311   3.949300  -1.734441   0.749444  -1.224064   0.179132  -8.933692   1.073757  -3.169652  -8.453594  34.405493  -3.984000 -26.195429  21.475459  25.955755  -0.003200  44.790310   0.002240  -1.682245   1.243830  -8.571261 -12.607227 -26.831128   4.543862 -20.991703 -13.384599 -19.300000  -0.002426 -56.552663  -0.001246  -0.847194  -3.394200  12.214920 -43.679745   0.904871  -7.904972  67.414009  -0.002076  -0.000541 -29.583630  -7.546338  -3.016139  -7.308909  -0.003750  -0.009073 -56.493751  -2.084942   2.856622  40.335523   0.000333   0.001931  -3.960274  -3.862627  -0.588653   0.223697   0.000329  -0.000302
